<?xml version="1.0" encoding="UTF-8" standalone="no"?>
<svg
   xmlns:dc="http://purl.org/dc/elements/1.1/"
   xmlns:cc="http://creativecommons.org/ns#"
   xmlns:rdf="http://www.w3.org/1999/02/22-rdf-syntax-ns#"
   xmlns:svg="http://www.w3.org/2000/svg"
   xmlns="http://www.w3.org/2000/svg"
   xmlns:sodipodi="http://sodipodi.sourceforge.net/DTD/sodipodi-0.dtd"
   xmlns:inkscape="http://www.inkscape.org/namespaces/inkscape"
   width="362.73401"
   height="411.38"
   id="svg4200"
   version="1.1"
   inkscape:version="0.91 r13725"
   sodipodi:docname="HTML5_Logo.svg">
  <metadata
     id="metadata4224">
    <rdf:RDF>
      <cc:Work
         rdf:about="">
        <dc:format>image/svg+xml</dc:format>
        <dc:type
           rdf:resource="http://purl.org/dc/dcmitype/StillImage" />
        <dc:title></dc:title>
      </cc:Work>
    </rdf:RDF>
  </metadata>
  <defs
     id="defs4222" />
  <sodipodi:namedview
     pagecolor="#ffffff"
     bordercolor="#666666"
     borderopacity="1"
     objecttolerance="10"
     gridtolerance="10"
     guidetolerance="10"
     inkscape:pageopacity="0"
     inkscape:pageshadow="2"
     inkscape:window-width="1444"
     inkscape:window-height="813"
     id="namedview4220"
     showgrid="false"
     fit-margin-top="0"
     fit-margin-left="0"
     fit-margin-right="0"
     fit-margin-bottom="0"
     inkscape:zoom="0.59667969"
     inkscape:cx="250.08058"
     inkscape:cy="160.47133"
     inkscape:window-x="0"
     inkscape:window-y="0"
     inkscape:window-maximized="0"
     inkscape:current-layer="svg4200" />
  <!-- If you would like to customize the color of the badge, these two HSL colors are the primary oranges -->
  <!-- The second one needs to be +6 hue, +9% saturation, and +3% lightness of the first -->
  <polygon
     points="437.367,100.62 404.321,470.819 255.778,512 107.644,470.877 74.633,100.62 "
     id="polygon4202"
     transform="translate(-74.633,-100.62)"
     style="fill:#3a91b0" />
  <polygon
     points="404.27,130.894 256,130.894 256,480.523 376.03,447.246 "
     id="polygon4204"
     transform="translate(-74.633,-100.62)"
     style="fill:#3391c7" />
  <g
     id="g4206"
     transform="translate(-74.633,-100.62)"
     style="fill:#ebebeb">
    <polygon
       points="191.76,221.716 256,221.716 256,176.305 255.843,176.305 142.132,176.305 143.219,188.488 154.38,313.627 256,313.627 256,268.217 195.91,268.217 "
       id="polygon4208" />
    <polygon
       points="177.419,336.333 156.409,336.333 162.771,407.634 255.791,433.457 256,433.399 256,386.153 255.801,386.206 205.227,372.55 201.994,336.333 "
       id="polygon4210" />
  </g>
  <g
     id="g4214"
     transform="translate(-74.633,-100.62)"
     style="fill:#ffffff">
    <polygon
       points="255.843,268.217 255.843,313.627 311.761,313.627 306.49,372.521 255.843,386.191 255.843,433.435 348.937,407.634 349.62,399.962 360.291,280.411 361.399,268.217 349.162,268.217 "
       id="polygon4216" />
    <polygon
       points="255.843,221.605 255.843,221.716 365.385,221.716 365.385,221.716 365.531,221.716 366.442,211.509 368.511,188.488 369.597,176.305 255.843,176.305 255.843,204.509 "
       id="polygon4218" />
  </g>
</svg>
